STARTFONT 2.1
FONT -MIT-43VXMS KST-Medium-R-Normal--43-15-200-200-P-30-ISO8859-1
SIZE 15 200 200
FONTBOUNDINGBOX 51 43 0 -8
STARTPROPERTIES 17
ADD_STYLE_NAME ""
AVERAGE_WIDTH 30
CHARSET_ENCODING "1"
CHARSET_REGISTRY "ISO8859"
DEFAULT_CHAR 0
FAMILY "43VXMS KST"
FONT_ASCENT 35
FONT_DESCENT 8
FOUNDRY "MIT"
PIXEL_SIZE 43
POINT_SIZE 15
RESOLUTION_X 200
RESOLUTION_Y 200
SETWIDTH_NAME "Normal"
SLANT "R"
SPACING "P"
WEIGHT_NAME "Medium"
ENDPROPERTIES
CHARS 70
STARTCHAR char32
ENCODING 32
SWIDTH 1254 0
DWIDTH 19 0
BBX 1 43 0 -8
BITMAP
00
00
00
00
00
00
00
00
00
00
00
00
00
00
00
00
00
00
00
00
00
00
00
00
00
00
00
00
00
00
00
00
00
00
00
00
00
00
00
00
00
00
00
ENDCHAR
STARTCHAR char39
ENCODING 39
SWIDTH 726 0
DWIDTH 11 0
BBX 7 43 0 -8
BITMAP
00
00
00
00
10
38
FE
38
38
7C
38
10
00
00
00
00
00
00
00
00
00
00
00
00
00
00
00
00
00
00
00
00
00
00
00
00
00
00
00
00
00
00
00
ENDCHAR
STARTCHAR char40
ENCODING 40
SWIDTH 990 0
DWIDTH 15 0
BBX 11 43 0 -8
BITMAP
00E0
03C0
0780
0F80
0F00
1F00
1F00
3F00
3E00
7E00
7E00
FE00
7E00
3C00
3C00
1C00
1C00
1C00
1C00
1C00
3C00
3C00
7E00
FE00
7E00
7E00
3E00
3F00
1F00
1F00
0F00
0F80
0780
03C0
00E0
0000
0000
0000
0000
0000
0000
0000
0000
ENDCHAR
STARTCHAR char41
ENCODING 41
SWIDTH 990 0
DWIDTH 15 0
BBX 11 43 0 -8
BITMAP
E000
7800
3C00
3E00
1E00
1F00
1F00
1F80
0F80
0FC0
0FC0
0FE0
0FC0
0780
0780
0700
0700
0700
0700
0700
0780
0780
0FC0
0FE0
0FC0
0FC0
0F80
1F80
1F00
1F00
1E00
3E00
3C00
7800
E000
0000
0000
0000
0000
0000
0000
0000
0000
ENDCHAR
STARTCHAR char44
ENCODING 44
SWIDTH 924 0
DWIDTH 14 0
BBX 9 43 0 -8
BITMAP
0000
0000
0000
0000
0000
0000
0000
0000
0000
0000
0000
0000
0000
0000
0000
0000
0000
0000
0000
0000
0000
0000
0000
0000
0000
0000
0000
0000
0000
8080
6300
7F00
7F00
7F00
6700
8380
0180
0300
1C00
0000
0000
0000
0000
ENDCHAR
STARTCHAR char45
ENCODING 45
SWIDTH 1254 0
DWIDTH 19 0
BBX 15 43 0 -8
BITMAP
0000
0000
0000
0000
0000
0000
0000
0000
0000
0000
0000
0000
0000
0000
0000
0000
0000
0000
0000
0000
0000
1010
3FF8
FFFE
3FF8
1010
0000
0000
0000
0000
0000
0000
0000
0000
0000
0000
0000
0000
0000
0000
0000
0000
0000
ENDCHAR
STARTCHAR char46
ENCODING 46
SWIDTH 924 0
DWIDTH 14 0
BBX 9 43 0 -8
BITMAP
0000
0000
0000
0000
0000
0000
0000
0000
0000
0000
0000
0000
0000
0000
0000
0000
0000
0000
0000
0000
0000
0000
0000
0000
0000
0000
0000
0000
0000
8080
6300
7F00
7F00
7F00
6300
8080
0000
0000
0000
0000
0000
0000
0000
ENDCHAR
STARTCHAR char48
ENCODING 48
SWIDTH 1914 0
DWIDTH 29 0
BBX 26 43 0 -8
BITMAP
00000000
00000000
00000000
00000000
00000000
00040000
001F0000
00E1C000
3FE0F000
7FC07F00
3FC07FC0
3F807F80
3F807F80
3F807F80
3F807F80
3F807F80
3F807F80
3F807F80
3F807F80
3F807F80
3F807F00
3F807F00
3F807F00
3F807F00
3F807F00
7F807F00
7F807F00
7F807F00
FF80FF00
0FC0FF80
01C1FE00
00638000
003C0000
00080000
00000000
00000000
00000000
00000000
00000000
00000000
00000000
00000000
00000000
ENDCHAR
STARTCHAR char49
ENCODING 49
SWIDTH 1386 0
DWIDTH 21 0
BBX 18 43 0 -8
BITMAP
000000
000000
000000
000000
F07000
F07800
F1FC00
FFFFC0
0FFFC0
01FF00
01FE00
01FE00
01FE00
01FE00
01FE00
01FE00
01FE00
01FE00
01FE00
01FE00
01FE00
01FE00
01FE00
01FE00
01FE00
01FE00
01FE00
01FE00
03FE00
0FFF00
1FFFC0
03FE00
00F800
007000
000000
000000
000000
000000
000000
000000
000000
000000
000000
ENDCHAR
STARTCHAR char50
ENCODING 50
SWIDTH 1716 0
DWIDTH 26 0
BBX 23 43 0 -8
BITMAP
000000
000000
000000
000000
003000
00F800
01CF00
1F87F0
7F03FE
7E03FC
7E03FC
7E03FC
7E03FC
7E03FC
7803FC
0007FC
0007FC
000FFC
001FFE
007F00
00F000
01C000
030000
060000
0C0060
1803E0
307FF0
23FFF8
6FFFFE
7FFFFE
FFFFFC
FFFFF0
F801E0
800020
000000
000000
000000
000000
000000
000000
000000
000000
000000
ENDCHAR
STARTCHAR char51
ENCODING 51
SWIDTH 1848 0
DWIDTH 28 0
BBX 25 43 0 -8
BITMAP
00000000
00000000
00000000
00000000
001C0000
007F0000
01C3E000
1F81FF80
FF01FF00
7F01FF00
7E00FF00
7E00FF00
7E00FF00
7F00FF00
7000FF00
0001FF80
0001F800
00038000
007E0000
00FE0000
0003C000
0001FF80
0000FF00
0000FF00
4000FF00
7E00FF00
7E00FF00
7E00FF00
7E00FF80
7F00FF80
7F01FC00
01838000
007E0000
003C0000
00000000
00000000
00000000
00000000
00000000
00000000
00000000
00000000
00000000
ENDCHAR
STARTCHAR char52
ENCODING 52
SWIDTH 1782 0
DWIDTH 27 0
BBX 24 43 0 -8
BITMAP
000000
000000
000000
000000
000000
000000
000000
000FF8
001FF0
001FE0
003FC0
003F80
007F00
007E00
00FC00
00F800
01F000
03E1C0
03C3F0
071FFC
0E0FF8
0E0FF8
1C07F0
3807F0
7007F8
E007F8
FFFFFF
0007F8
0007F8
000FF8
003FFE
003FF0
0003E0
0001C0
000000
000000
000000
000000
000000
000000
000000
000000
000000
ENDCHAR
STARTCHAR char53
ENCODING 53
SWIDTH 1782 0
DWIDTH 27 0
BBX 24 43 0 -8
BITMAP
000000
000000
000000
000000
1FFFF0
7FFFE0
7FFF80
7FFF00
7FFF00
7FFF00
7FFE00
700000
600000
400000
400000
41F800
47FF00
4C07E0
7003FE
6001FE
6001FE
4001FE
0000FE
0000FE
D800FE
F800FE
F800FE
FC01FE
FC01FF
FE01FC
0E03C0
038300
00C400
007800
000000
000000
000000
000000
000000
000000
000000
000000
000000
ENDCHAR
STARTCHAR char54
ENCODING 54
SWIDTH 1914 0
DWIDTH 29 0
BBX 26 43 0 -8
BITMAP
00000000
00000000
00000000
00000000
00000000
000C0000
003E0000
00E18000
03E1FE00
3F80FF00
FF807E00
7F807E00
7F807E00
7F803E00
7F800000
7F800000
7F878000
7F99F000
7FE0FC00
7FC07FC0
7FC07F80
7F807F80
7F807F80
7F807F80
7F807F80
7F807F80
7F807F80
7F807F80
FF807FC0
1F807C00
01C0F000
0061C000
001F0000
000C0000
00000000
00000000
00000000
00000000
00000000
00000000
00000000
00000000
00000000
ENDCHAR
STARTCHAR char55
ENCODING 55
SWIDTH 1716 0
DWIDTH 26 0
BBX 23 43 0 -8
BITMAP
000000
000000
000000
000000
000000
100002
1FFFFE
3FFFFE
3FFFFC
FFFFFC
FFFFF8
7FFF88
7E0010
3C0010
380020
100060
100040
0000C0
000180
000180
000380
000700
000F00
001F00
003F00
007F00
00FF00
01FF00
07FF00
1FFF00
0FFF00
07F800
01E000
00C000
000000
000000
000000
000000
000000
000000
000000
000000
000000
ENDCHAR
STARTCHAR char56
ENCODING 56
SWIDTH 1914 0
DWIDTH 29 0
BBX 26 43 0 -8
BITMAP
00000000
00000000
00000000
00000000
00000000
00180000
007F0000
01E1F000
3F807F00
FF803F00
7F803F00
3F801F00
3FC01F00
3FF03F00
3FFC3F00
7FFE6000
7FFFC000
0FFFC000
03FFF000
00FFFE00
01FFFF00
070FFFC0
FE07FFC0
7C01FF80
7C00FF80
7C007F80
7C003FC0
7C003FC0
7E003FC0
FF003F00
1F807000
00E0C000
001E0000
000C0000
00000000
00000000
00000000
00000000
00000000
00000000
00000000
00000000
00000000
ENDCHAR
STARTCHAR char57
ENCODING 57
SWIDTH 1914 0
DWIDTH 29 0
BBX 26 43 0 -8
BITMAP
00000000
00000000
00000000
00000000
00000000
00000000
001E0000
007F8000
01E1E000
FFC0FFC0
7F80FF80
7F807F80
7F807F80
7F807F80
7F807F80
7F807F80
7F807F80
7F807F80
7F807F80
FF80FF80
FF81FF80
0FC3FF80
01FC7F80
00007F80
00007F80
3F007F80
3F007F80
3F007F80
3F007F80
3F007FC0
3F80FFC0
0181E000
00C00000
00300000
00000000
00000000
00000000
00000000
00000000
00000000
00000000
00000000
00000000
ENDCHAR
STARTCHAR char63
ENCODING 63
SWIDTH 1980 0
DWIDTH 30 0
BBX 25 43 0 -8
BITMAP
00000000
00000000
00000000
003E0000
03FFE000
1F80FC00
FF007F80
7E003F00
3E003E00
3C001E00
1C001E00
1E001E00
3F001E00
7F801E00
7F803E00
7F803F00
3F007F80
0000FC00
000FE000
007F0000
003E0000
003E0000
007F0000
01FFC000
01FFC000
00FF8000
007F0000
003E0000
001C0000
00888000
00630000
007F0000
007F0000
007F0000
00630000
00808000
00000000
00000000
00000000
00000000
00000000
00000000
00000000
ENDCHAR
STARTCHAR char65
ENCODING 65
SWIDTH 2904 0
DWIDTH 44 0
BBX 40 43 0 -8
BITMAP
0000000000
01FC000000
03FF801800
0FFFE07000
0FFFF8E000
1FFFFDC000
3C0FFFC000
3807FFC000
3003FFC000
7001FFC000
7001FFC000
73E3FFE000
73E37FE000
73E33FE000
73E63FF000
33E61FF000
31E61FF000
1CEC1FF800
0F8C0FF800
020C0FF800
001C0FFC00
001FFFFC00
003FFFFE00
003FFFFF00
007061FF00
007061FF80
00F061FF80
00F060FFC0
03F061FFE0
07F861FFF8
3FF843FFFE
FFFE47FFFF
FFFF401FE0
1FF8400F80
07E0400700
0380400600
0100600000
0000680000
00006E0000
00006F0000
00003F0000
00003E0000
0000000000
ENDCHAR
STARTCHAR char66
ENCODING 66
SWIDTH 2838 0
DWIDTH 43 0
BBX 39 43 0 -8
BITMAP
0000000000
0000000000
7E00000000
FE003FF000
FC01FFFF00
FC0FE61FC0
FFFFC60FF0
7FFFC607FC
00FFC607FC
00FFC607FE
00FFC607FE
00FFC607FE
00FFC607FE
0FFFC60FFE
0FFFC60FFC
0FFFC61FF0
0FFFC6FFC0
1FFFC7FE00
1FFF87FF00
1FFF841FC0
00FF8C1FF0
00FF8C0FF8
00FF8C0FF8
00FF8C0FFC
00FF8C0FFC
00FF8C0FFC
00FFCC0FFC
01FFFC0FFC
03FFFE0FFC
07FFFF0FFC
1FFFFFCFFC
3FFFFFDFFC
7FFFFFFFFE
F001FFC002
C0007E0000
80003C0000
0000180000
0000080000
0000080000
00000BC000
00000FC000
00000FC000
0000078000
ENDCHAR
STARTCHAR char67
ENCODING 67
SWIDTH 2640 0
DWIDTH 40 0
BBX 36 43 0 -8
BITMAP
000001FC00
000303FE00
001F063FF0
007E1E1FE0
00FC7C1F80
03F8FC1E00
03F3FC1E00
0FFFFC1C00
0FF1FC1C00
1FE1FC1800
3FE1FC1800
3FC1FC1800
7FC1FC1800
7FC1FC1800
7FC1FC1800
FFC1FC1800
FFC1FC1800
FFC1FC3000
FFC1FC3000
FFC1FC3000
FFC1FC3000
FFC1FC3000
FFC1FC3030
FFC1FC3070
FFE1FC3060
7FE1FE30C0
3FE1F830C0
3FE1E03180
1FF3803300
0FFE003600
07FC003C00
03FC003800
01FF00F000
007FFFF000
000FFE3000
0000003200
0000003380
00000033C0
00000013C0
0000001F80
0000001F00
0000000000
0000000000
ENDCHAR
STARTCHAR char68
ENCODING 68
SWIDTH 2904 0
DWIDTH 44 0
BBX 40 43 0 -8
BITMAP
0000000000
0000000000
0000000000
3C0000FC00
FC001FFFC0
FC00FE1FE0
FC0FF207FC
FFFFE207FC
0FFFE207FC
00FFE207FE
007FE207FE
007FE207FE
007FE207FE
047FE207FE
07FFE207FE
0FFFE207FE
0FFFE307FE
0FFFE3FFFE
0FFFE31FFE
1FFFC207FE
18FFC207FE
30FFC607FE
00FFC607FE
00FFC607FE
00FFC607FE
00FFC607FE
00FFC607FE
00FFE607FE
00FFFF07FE
00FFFF87FE
01FFFFE7FE
03FFFFFFFE
0FFFFFFFFF
1FFFFFF800
3C00FFC000
70003F0000
40000E0000
00000C0000
000004C000
000005E000
000007E000
000007E000
000001C000
ENDCHAR
STARTCHAR char69
ENCODING 69
SWIDTH 2904 0
DWIDTH 44 0
BBX 40 43 0 -8
BITMAP
0000000000
0000000000
0000000000
7C007FFF00
FC07FC3FE0
F83F8C0FF0
7FFF8C07FF
1FFF8C03FC
03FF8C03F8
01FF8C81E0
01FF8CC1C0
01FF0CC180
01FF0DC000
11FF0DC000
1FFF0FE000
1FFF8FE000
1FFFFFF000
1FFFFFF800
3FFFFFFC00
3FFF9FE000
31FF0FC000
01FF0B8000
01FF0980C0
01FF0900C0
01FF0900C0
01FF1800C0
03FF1801E0
03FF1801E0
07FF1807F0
1FFF980FF0
3FFFFFFFFC
03FFFFFFFF
00FC181FF0
00781803C0
0070180080
0000180000
0000180000
00001F8000
00000FC000
00000FC000
00000F8000
0000000000
0000000000
ENDCHAR
STARTCHAR char70
ENCODING 70
SWIDTH 2904 0
DWIDTH 44 0
BBX 40 43 0 -8
BITMAP
0000000000
0000000000
0000000000
00003FFE00
7C01FFFFC0
FC0FCC1FF3
FC7F8C0FFE
FFFF8C07FC
7FFF0C03F0
01FF0C03E0
01FF0C01C0
01FF0C8180
01FF0CC100
01FF0FC000
0BFF0FE000
1FFFFFE000
1FFFFFF800
1FFFFFFE00
1FFFFFFC00
1FFFFFF000
1FFF0FE000
31FF0FC000
21FF0D8000
01FF0D8000
01FF0C8000
01FF0C0000
01FF0C0000
03FF0C0000
03FF8C0000
07FFCC0000
1FFFFC0000
3FFFFC0000
0FFE0C0000
00F80C0000
00700C0000
00200C0000
00000C0000
00000F8000
00000FC000
00000FC000
00000FC000
00000FC000
0000070000
ENDCHAR
STARTCHAR char71
ENCODING 71
SWIDTH 2904 0
DWIDTH 44 0
BBX 40 43 0 -8
BITMAP
0000000000
0000000000
000007FE00
00071FFFC0
001E387FC0
007C787F00
01F9F87C00
03FBF87800
07FFF87000
0FFBF86000
1FE3F86000
1FE3F86060
3FC3F860F0
3FC3F861F8
7FC3F87FF8
7FC3FFFFFC
7FC3F8FFFC
FFC3F87FFE
FFC3F867FE
FFC3F867FF
FFC3F863FF
FFC3F863FF
FFC3F861FE
FFC3F861FE
FFC3F861FE
7FC3FC61FC
7FC3F061FC
3FC78061F8
3FE70063F0
0FFC0063E0
0FF80067C0
03F8007F00
00FE00FC00
003FFFE000
0001FCE000
0000006E00
0000006F00
0000006F00
0000007F00
0000003E00
0000000000
0000000000
0000000000
ENDCHAR
STARTCHAR char72
ENCODING 72
SWIDTH 3168 0
DWIDTH 48 0
BBX 44 43 0 -8
BITMAP
000000000000
000000000000
000000003000
781C04007800
F83E0400FC00
F0FF0C07FF00
FFFFFC3FFFF0
7FFFFC0FFFC0
01FFE407FF00
01FFC403FF00
01FFC403FF00
01FFC403FF00
01FFC403FF00
09FFC603FF00
0FFFC603FF00
0FFFCEFFFF00
1FFFFFFFFF00
1FFFFFFFFF00
1FFFFFFFFF00
1FFFFFFFFF00
31FFC403FF00
00FFC403FF00
00FF8403FF00
00FF8403FF00
00FF8403FF00
00FF8403FF00
01FFC403FF00
01FFCC03FF00
03FFFC07FFE0
07FFFC0FFFF0
0FFFFC3FFF80
0FFFC403FE00
1FFF8400FC00
3C0F04003000
70030C000000
40000D800000
00000FC00000
00000FC00000
00000FC00000
000007C00000
000003C00000
000000000000
000000000000
ENDCHAR
STARTCHAR char73
ENCODING 73
SWIDTH 1584 0
DWIDTH 24 0
BBX 21 43 0 -8
BITMAP
000000
000000
000000
7C0000
FC3F00
F87FF0
FFFFF0
7FFFE0
0FFFC0
00FFC0
00FFC0
00FFC0
00FFC0
0CFFC0
0FFFC0
0FFFC0
0FFFC0
0FFFC0
0FFFC0
1FFFC0
10FFC0
00FFC0
00FFC0
00FFC0
00FFC0
00FFC0
00FFC0
01FFC0
01FFC0
0FFFF8
1FFFE0
00FF00
003E00
001C00
000000
000000
000000
000000
000000
000000
000000
000000
000000
ENDCHAR
STARTCHAR char74
ENCODING 74
SWIDTH 1980 0
DWIDTH 30 0
BBX 27 43 0 -8
BITMAP
00000000
00000000
07E07000
07E0FC00
07C3FFC0
07FFFF80
03FFFF00
0007FE00
0003FE00
0003FE00
0003FE00
0003FE00
0007FE00
003FFE00
003FFE00
007FFE00
007FFE00
007FFE00
007FFE00
00C3FE00
0083FE00
0003FE00
1803FE00
7E03FE00
FE03FE00
FF03FF00
FF03FF00
FE03FF80
FE07FFE0
FC07FC00
E00FF000
701FC000
383F0000
1FFC0000
00000000
00000000
00000000
00000000
00000000
00000000
00000000
00000000
00000000
ENDCHAR
STARTCHAR char75
ENCODING 75
SWIDTH 3036 0
DWIDTH 46 0
BBX 42 43 0 -8
BITMAP
000000000000
000000000000
000004006000
70380400F000
F07E0403FF00
F1FF8C1FFE00
FFFFFC0FFC00
03FFCC07F800
00FFCC07F000
00FF8C07E000
00FF8C07C000
00FF8C078000
00FF8C070000
00FF8C0E0000
0CFF8C180000
0FFF8C700000
0FFFCFC00000
0FFFFF800000
0FFFFFE00000
1FFFCC780000
1FFFCC3E0000
18FFCC1F0000
30FFCC1FC000
00FFCC0FE000
00FFCC0FF000
00FFCC0FF800
00FFFC0FFC00
00FFFC0FFE00
01FFFC0FFF00
07FFEC0FFFC0
07FFC407FE00
0FFFC403F800
1E0784007000
380184000000
300004000000
000004000000
000007E00000
000006E00000
000007E00000
000007C00000
000000000000
000000000000
000000000000
ENDCHAR
STARTCHAR char76
ENCODING 76
SWIDTH 2442 0
DWIDTH 37 0
BBX 33 43 0 -8
BITMAP
0000000000
0000000000
0000000000
0000FF8000
7807E67000
F83FC63800
FFFFC63C00
7FFFC63F00
00FFC63F80
00FFC67F00
00FFC67E00
00FFC61C00
00FFC60000
00FFC60000
07FFC60000
0FFFC60000
0FFFC60000
0FFFC60000
0FFFC60000
1FFFC60000
18FFC60000
30FFC60000
30FFC60000
00FFC60000
00FFCE0000
00FFFF8000
00FFFFFF80
00FFFFFE00
01FFFFFC00
03FFFFF800
0FFFFFF000
0F000FE000
3C0007C000
3000060000
2000060000
0000060000
0000060000
000007E000
000006E000
000003E000
000003E000
0000000000
0000000000
ENDCHAR
STARTCHAR char77
ENCODING 77
SWIDTH 3630 0
DWIDTH 55 0
BBX 50 43 0 -8
BITMAP
00000000000000
00000000000000
00000000000000
0000002000C000
7C07006001E000
FC07806003F000
FC1FF0601FFC00
7FFFFFE0FFFF00
07FFFF203FFFC0
003FFE201FFF00
003FFE201FFE00
001FFE203FFE00
001FFF203FFE00
001BFF603FFE00
001BFF606FFE00
01F9FFE04FFE00
01F9FFE0CFFE00
01F8FFE0CFFE00
01F8FFE18FFE00
01F87FE18FFE00
03F87FE30FFE00
03187FE30FFE00
02183FF60FFE00
00183FF60FFE00
00181FFC0FFE00
00381FFC0FFE00
00380FFC0FFE00
00380FFC0FFE00
00780FFC0FFE00
00FE0FFE1FFE00
07FF0FFE3FFFC0
0FFF0FFE1FFE00
00FC03F801F800
003000E000E000
003000E0000000
00000060000000
00000060000000
0000006E000000
0000007E000000
0000007E000000
0000003C000000
00000000000000
00000000000000
ENDCHAR
STARTCHAR char78
ENCODING 78
SWIDTH 3036 0
DWIDTH 46 0
BBX 42 43 0 -8
BITMAP
000000000000
000000000000
000001001800
780601003C00
F81F0100FFC0
F83FE103FF80
FFFFFD00FE00
03FFFD807C00
00FFFF803C00
007FFF801800
003FFF801800
003FFF801800
003FFFC01800
03F7FFE01800
03F3FFF01800
03E1FFF81800
03E0FFFC1800
07E07FFE1800
07703FFF1800
04303FFF9800
00300FFFD800
00300FFFD800
003003FFF800
003003FFF800
003003FFFC00
003003FFFF00
007003FFFE00
0078039FF800
00FC019FF000
07FFC187F000
1FFE0187E000
07F80183E000
00700181C000
00200180C000
000001804000
000001E00000
000001F00000
000001F00000
000000F00000
000000E00000
000000000000
000000000000
000000000000
ENDCHAR
STARTCHAR char79
ENCODING 79
SWIDTH 2838 0
DWIDTH 43 0
BBX 39 43 0 -8
BITMAP
0000000000
0000000000
0000000000
000183F800
000F9DFE00
003E3CFF80
00FC78DFE0
03FDF8DFE0
07FFF8CFF0
0FFFF8C7F8
1FF3F8C7FC
3FE3F8C7FC
3FE3F8C7FE
7FE3F8C7FE
7FC3F8C3FE
FFC3F8C3FE
FFC3F883FE
FFC3F883FE
FFC3F883FE
FFC3F883FE
FFC3F883FE
FFC3F883FE
FFC3F887FE
FFC3F887FC
FFC3F887F8
7FC3F887F8
7FC3F887F0
3FE3C08FE0
1FE6008FC0
0FF0009F80
07F801FF00
01FC01FC00
007F07F000
000FFF8000
0000038000
0000018000
000001B800
000001F800
000000F800
0000007000
0000000000
0000000000
0000000000
ENDCHAR
STARTCHAR char80
ENCODING 80
SWIDTH 2772 0
DWIDTH 42 0
BBX 38 43 0 -8
BITMAP
0000000000
0000000000
0000000000
7C00FE3E00
F807E41FC0
F83FC407E0
FFFFC407F0
FFFFC403F8
00FFC403FC
00FFC403FC
00FFC403FC
00FFC783FC
08FFC783FC
0FFFC787FC
1FFFC70FFC
1FFFC61FF8
1FFFC7FFF0
1FFFC47FC0
3FFFC40000
30FFC40000
20FFC40000
00FFC40000
00FFC40000
00FFC40000
00FFC40000
00FFC40000
01FFC40000
01FFCC0000
07FFFC0000
1FFFFC0000
07FE0C0000
00FC0C0000
00380C0000
0018040000
0000040000
0000058000
000007C000
000007C000
000007C000
0000038000
0000000000
0000000000
0000000000
ENDCHAR
STARTCHAR char81
ENCODING 81
SWIDTH 2838 0
DWIDTH 43 0
BBX 39 43 0 -8
BITMAP
0000000000
0000000000
0000000000
0000000000
00070FFC00
001E3DFF00
007C79FF80
01F8F99FC0
07F3F98FE0
07F3F98FF0
0FE3F987F8
3FE3F987FC
3FC3F987FC
7FC3F983FE
7FC3F983FE
FFC3F983FE
FFC3F983FE
FFC3F983FE
FFC3F983FE
FFC3F983FE
FFC3F983FE
FFC3F983FE
FFC3F983FE
FFC3F983FC
FFC3F987FC
FFC3F987F8
7FC3E18FF0
7FC3818FF0
3FE3019FE0
1FE0019F80
0FF001BF00
03F801FC00
00FC01F800
003FFFFC00
0000FFFFE0
0001FFFF80
0007FFFF00
001E03FE00
0070007C00
0040001800
0000000000
0000000000
0000000000
ENDCHAR
STARTCHAR char82
ENCODING 82
SWIDTH 2904 0
DWIDTH 44 0
BBX 40 43 0 -8
BITMAP
0000000000
0000000000
0000000000
7C00000000
FC001FFC00
FC01FFFF80
FC1FE61FE0
7FFFC60FF8
1FFFC60FF8
00FFC407FC
00FFC407FC
00FFC407FC
00FFC40FFC
06FFC40FF8
0FFFC41FF0
0FFFC41FE0
0FFFC47F80
0FFFFFF800
0FFFFFF800
1FFFCC3C00
18FFCC3F00
00FFCC1F80
00FFCC0FC0
00FFCC0FE0
00FFCC0FE0
00FFCC0FF0
00FFCC0FF8
01FFCC0FFC
03FFFC0FFC
1FFFFC0FFE
1FFFFC1FFF
00FF0C07FC
007C0C00F0
00380C0060
00000C0000
00000C0000
00000D8000
00000FC000
00000FC000
00000F8000
0000078000
0000000000
0000000000
ENDCHAR
STARTCHAR char83
ENCODING 83
SWIDTH 2772 0
DWIDTH 42 0
BBX 38 43 0 -8
BITMAP
0000000000
0000000000
0000000000
001FF80000
00FFFF0000
01C1FFE010
03803FF8FC
07800FFFFC
0F8007FE3C
0FC001F83C
0FE000F830
0FFC00E000
0FFFE0E000
0FFFFFC000
0FFFFFE000
0FFFFFFE00
07FFFFFF80
03FFFFFFC0
01FFFFFFF0
007FFFFFF0
001FFFFFF8
0003FFFFF8
00007FFFFC
000060FFFC
000FE00FFC
03FFF003FC
0FFFFE01F8
3FFFFF80F8
3FFFFFC0F0
F01FFFF0F0
C030FFF8E0
C0703FFF80
C0C01FF000
FF801E0000
3E00000000
0000000000
0000000000
0000000000
0000000000
0000000000
0000000000
0000000000
0000000000
ENDCHAR
STARTCHAR char84
ENCODING 84
SWIDTH 2574 0
DWIDTH 39 0
BBX 35 43 0 -8
BITMAP
0000000000
0000000000
0000000000
0000000000
01FE07F000
FFEF1E7FE0
FFC7FC7FE0
FF87FC3FE0
FF87FC3FE0
FF07FC3FE0
FF07FC3FE0
FE07FC3FE0
FE07FC3FE0
FC47FC3FE0
F87FFC3FE0
F87FFC33E0
F0FFFC33E0
E0FFFC30E0
C0FFFC3060
01FFFC3000
018FFC2000
010FFC2000
000FFC2000
000FFC2000
000FFC2000
000FFC2000
000FFC2000
000FFC2000
001FFE6000
007FFFE000
007FFFE000
0007F86000
0001E06000
0000006000
0000006000
0000002000
0000003000
0000003700
0000003700
0000003E00
0000001C00
0000000000
0000000000
ENDCHAR
STARTCHAR char85
ENCODING 85
SWIDTH 2970 0
DWIDTH 45 0
BBX 41 43 0 -8
BITMAP
000000000000
000000000000
000001803000
F81E01807800
F83F0180FE00
FFFF818FFF80
7FFFF18FFF80
01FFE183FE00
00FFC181FC00
00FFC180F800
00FFC1807000
00FFC1807000
00FFC1807000
07FFC1806000
07FFC1802000
0FFFC1802000
0FFFC19E6000
0FFFC1FFE000
1FFFC1FFE000
18FFC1802000
10FFC1802000
00FFC1802000
00FFC1806000
00FFC1806000
00FFC1807000
00FFC1807000
00FFC180F800
03FFC380FC00
07FFC381E000
007FC3838000
000FE38E0000
0001FFF80000
00007FE00000
000003800000
000003800000
000003F00000
000003F00000
000001F00000
000001F00000
000000E00000
000000000000
000000000000
000000000000
ENDCHAR
STARTCHAR char86
ENCODING 86
SWIDTH 3036 0
DWIDTH 46 0
BBX 42 43 0 -8
BITMAP
000000000000
000000000000
000000000000
780000C00000
FC0000C03800
F83E00C07C00
F07F80C3FFC0
FFFFF087FFC0
7FFFF081FE00
03FFF0C0FC00
01FFF0C07800
00FFF0807000
00FFF0806000
007FF0806000
007FF8804000
00FFFC80C000
00FFFC808000
00FFFE818000
00FFFF810000
01FFFF830000
01FFFF820000
0183FFC60000
0101FFC60000
0001FFCC0000
0000FFE80000
0000FFF80000
00007FF80000
00007FF80000
00007FFC0000
00007FFE0000
0001FFFF0000
00001FF80000
000007E00000
000001C00000
000001800000
000001800000
0000019C0000
0000009E0000
000000CE0000
000000FE0000
0000007C0000
000000000000
000000000000
ENDCHAR
STARTCHAR char87
ENCODING 87
SWIDTH 3696 0
DWIDTH 56 0
BBX 51 43 0 -8
BITMAP
00000000000000
00000000000000
00000000000000
00000000000000
F000000C000000
E078003F000F00
E1FE01FFF0FF80
FFFFC7FFF0FFE0
FFFFC3FFE07F80
01FF81FFC03F00
01FF80FFC01E00
00FF80FFC01C00
00FF807FE01800
00FF807FE01800
02FFC0FFE01000
03FFC0FFF03000
03FFC0FFF03000
03FFC1FFF82000
07FFE1FFF86000
07FFE37FF86000
043FE36FFC4000
001FF26FFCC000
001FF667FCC000
001FFC67FF8000
001FFC63FF8000
000FFC63FF8000
000FFC63FF8000
000FFC43FF8000
001FFE43FFE000
003FFE47FFC000
001FF847FE0000
0003E0403E0000
0001C0C0180000
000080C0000000
000000C0000000
000000F8000000
000000FC000000
000000FC000000
0000007C000000
0000003C000000
00000000000000
00000000000000
00000000000000
ENDCHAR
STARTCHAR char88
ENCODING 88
SWIDTH 2706 0
DWIDTH 41 0
BBX 37 43 0 -8
BITMAP
0000000000
0000000000
0000000000
780E001000
F01F801C60
F07FF03FC0
FFFFF87FC0
3FFFF87F80
003FF8FF00
003FF8FE00
001FF98000
000FFF0000
000FFE0000
0007FE0000
001FFFF000
003FFFF000
003FFFE000
003FFFC000
0021FF8000
0000FFC000
0000FFC000
0000FFE000
00033FF000
00033FF000
00061FFC00
007E0FFC00
03FE0FFE00
0FFF87FFF0
1FFF87FFF8
3FFF01FFC0
7FFC007F00
F07C003C00
C018001800
8000000000
0000000000
0000000000
0000000000
0000000000
0000000000
0000000000
0000000000
0000000000
0000000000
ENDCHAR
STARTCHAR char89
ENCODING 89
SWIDTH 2970 0
DWIDTH 45 0
BBX 41 43 0 -8
BITMAP
000000000000
000000000000
000000000000
306000003000
F8F800007800
F1FE0001FC00
FFFFE08FFF80
FFFFF081FF80
03FFE080FC00
01FFE080F000
00FFE080E000
007FF0C0C000
003FF8C18000
001FF8C18000
001FFCC30000
007FFEC60000
007FFFC40000
007FFFCC0000
007FFFD80000
007FFFF80000
00E0FFF00000
0080FFF00000
00807FF00000
00003FF00000
00003FF00000
00003FF00000
00003FF00000
00003FF00000
00007FF80000
0001FFFF0000
0001FFFC0000
00000FE00000
000007C00000
000003C00000
000001C00000
000000C00000
000000C00000
000000D80000
000000F80000
000000F80000
000000780000
000000000000
000000000000
ENDCHAR
STARTCHAR char90
ENCODING 90
SWIDTH 2640 0
DWIDTH 40 0
BBX 36 43 0 -8
BITMAP
0000000000
0000000000
0000000000
0000000800
0300001800
07C000FC00
0FFC7FFC00
3FFFFFFE00
3FF063FFC0
1F8067FFC0
0F006FFF00
07007FFF00
06007FFC00
06007FF800
0200FFF000
0001FFE000
0003FFC000
0007FF8000
000FFF0000
003FFC0000
007FF80200
01FFF00300
03FFE00300
03FFC00700
0FFFC00F80
0FFFC00F80
3FFFC01FC0
7FFCC07FF0
FFFCFFFFF0
FFFFFFFFE0
1FFFFFFFC0
07E0C00700
0380C00300
0300C00000
0000C00000
0000F80000
0000FC0000
0000FC0000
00007C0000
0000380000
0000000000
0000000000
0000000000
ENDCHAR
STARTCHAR char97
ENCODING 97
SWIDTH 1782 0
DWIDTH 27 0
BBX 24 43 0 -8
BITMAP
000000
000000
000000
000000
000000
000000
000000
000000
000000
000000
000000
000000
000000
000000
000000
000000
000300
3C0F80
7C3FFC
7EFFFF
7FFFFC
3007FC
1C03FC
0783FC
01FFFC
0FFFFC
7F83FC
7F83FC
7F83FC
7F83FC
7FFFFC
7FFFFF
FF83F8
1E00E0
0C0000
000000
000000
000000
000000
000000
000000
000000
000000
ENDCHAR
STARTCHAR char98
ENCODING 98
SWIDTH 1782 0
DWIDTH 27 0
BBX 24 43 0 -8
BITMAP
000000
000000
000000
000000
000000
000000
0F8000
3FE000
FFE000
7FC000
1FC000
1FC000
1FC000
1FC000
1FC000
1FC000
1FC000
1FC1E0
1FC3F8
1FFFFF
1FFFFF
1F81FE
1F80FE
1F80FE
1F80FE
1F80FE
1F80FE
1F80FE
1FC0FE
1FF0FE
3FFCFF
7FFFF8
00FF80
001E00
000000
000000
000000
000000
000000
000000
000000
000000
000000
ENDCHAR
STARTCHAR char99
ENCODING 99
SWIDTH 1386 0
DWIDTH 21 0
BBX 18 43 0 -8
BITMAP
000000
000000
000000
000000
000000
000000
000000
000000
000000
000000
000000
000000
000000
000000
000000
000000
000600
001F00
01FFC0
FF8FC0
7F0780
7F0300
7F0300
7F0200
7F0000
7F0000
7F0000
7F0000
7F0000
7FC000
7FF000
7FFF00
03F800
00F000
000000
000000
000000
000000
000000
000000
000000
000000
000000
ENDCHAR
STARTCHAR char100
ENCODING 100
SWIDTH 1716 0
DWIDTH 26 0
BBX 23 43 0 -8
BITMAP
000000
000000
000000
000000
000000
007800
01FE00
07FF80
0FFFFC
003FFE
001FFC
0007F8
0003F8
0003F8
0003F8
0003F8
01C3F8
07C3F8
3FFFF8
7FE7F8
7F83F8
7F03F8
7E03F8
7E03F8
7E03F8
7E03F8
7E03F8
7F03F8
7F83F8
FFE3F8
FFFFFC
07FF80
01FC00
007800
000000
000000
000000
000000
000000
000000
000000
000000
000000
ENDCHAR
STARTCHAR char101
ENCODING 101
SWIDTH 1650 0
DWIDTH 25 0
BBX 22 43 0 -8
BITMAP
000000
000000
000000
000000
000000
000000
000000
000000
000000
000000
000000
000000
000000
000000
000000
000000
001800
007C00
03FE00
FFFF00
FFFF80
7FBFC0
7F1FF0
7F0FFC
7F07F8
7F1E00
7FE000
7F8000
7F8000
7FE000
7FF800
FFFFF8
07FF80
00FC00
007000
000000
000000
000000
000000
000000
000000
000000
000000
ENDCHAR
STARTCHAR char102
ENCODING 102
SWIDTH 1386 0
DWIDTH 21 0
BBX 18 43 0 -8
BITMAP
000000
000000
000000
000000
000000
000E00
001E00
007F00
47FFC0
7FFF80
1FCF00
1FC600
1FC600
1FC000
1FC000
1FC000
1FC400
FFFC00
FFF800
FFF800
FFF800
1FC000
1FC000
1FC000
1FC000
1FC000
1FC000
1FC000
1FC000
1FC000
3FF000
7FFF00
0FF800
01E000
004000
000000
000000
000000
000000
000000
000000
000000
000000
ENDCHAR
STARTCHAR char103
ENCODING 103
SWIDTH 1716 0
DWIDTH 26 0
BBX 23 43 0 -8
BITMAP
000000
000000
000000
000000
000000
000000
000000
000000
000000
000000
000000
000000
000000
000000
000000
000000
000000
001C00
007F00
07FFE0
7FFFFE
3F9FFE
3F8FFE
3F83FC
3F81FC
3F81FC
3F81FC
3F81FC
3F81FC
3F81FC
3FC1FC
7FE1FC
FFFFFC
0FFFFE
01E0FE
0080FE
00007E
7E007E
F8C03E
F8007C
FC03F8
780000
000000
ENDCHAR
STARTCHAR char104
ENCODING 104
SWIDTH 1716 0
DWIDTH 26 0
BBX 23 43 0 -8
BITMAP
000000
000000
000000
000000
000000
000000
000000
0C0000
1F0000
7FC000
FF8000
7F8000
3F8000
3F8000
3F8000
3F8000
3F8000
3F8300
3F8780
3F9FF0
3FFFFC
3F9FF8
3F07F8
3F03F8
3F03F8
3F03F8
3F03F8
3F03F8
3F03F8
3F03F8
3F03FC
7FC3FE
FF81FC
3E0070
080020
000000
000000
000000
000000
000000
000000
000000
000000
ENDCHAR
STARTCHAR char105
ENCODING 105
SWIDTH 792 0
DWIDTH 12 0
BBX 10 43 0 -8
BITMAP
0000
0000
0000
0000
0000
0000
0000
0C00
1F00
7F80
FFC0
3F00
3E00
0C00
0000
0000
0000
0000
1E00
3F00
FFC0
FF80
7F00
7F00
7F00
7F00
7F00
7F00
7F00
7F00
7F00
7F00
FFC0
7F80
0C00
0000
0000
0000
0000
0000
0000
0000
0000
ENDCHAR
STARTCHAR char106
ENCODING 106
SWIDTH 990 0
DWIDTH 15 0
BBX 13 43 0 -8
BITMAP
0000
0000
0000
0000
0000
0000
0000
01C0
03C0
0FF0
1FF8
07E0
03C0
0000
0000
0000
0000
0380
07C0
1FF0
7FE0
1FE0
0FE0
0FE0
0FE0
0FE0
0FE0
0FE0
0FE0
0FE0
0FE0
0FE0
0FE0
0FE0
EFE0
EFE0
EFE0
EFE0
CF00
5C00
0000
0000
0000
ENDCHAR
STARTCHAR char107
ENCODING 107
SWIDTH 1848 0
DWIDTH 28 0
BBX 25 43 0 -8
BITMAP
00000000
00000000
00000000
00000000
00000000
00000000
06000000
1F000000
7FC00000
FFF00000
3FC00000
3FC00000
3FC00000
3FC00000
3F800000
3F800000
3F800000
1F800000
1F807000
1F81F800
1F81FE00
1F81F800
1F80E000
1F818000
1F830000
3FFE0000
3FC38000
3F81E000
3F81F000
3F80F800
3F80FC00
3F80FE00
FFE0FF80
3F007800
0E000000
00000000
00000000
00000000
00000000
00000000
00000000
00000000
00000000
ENDCHAR
STARTCHAR char108
ENCODING 108
SWIDTH 792 0
DWIDTH 12 0
BBX 10 43 0 -8
BITMAP
0000
0000
0000
0000
0000
0000
0E00
3F80
FFC0
7FC0
3F80
3F80
3F80
3F80
3F80
3F80
3F80
3F80
3F80
3F80
3F80
3F80
3F80
3F80
3F80
3F80
3F80
3F80
3F80
3F80
3F80
7F80
FFC0
1F00
0600
0000
0000
0000
0000
0000
0000
0000
0000
ENDCHAR
STARTCHAR char109
ENCODING 109
SWIDTH 2706 0
DWIDTH 41 0
BBX 37 43 0 -8
BITMAP
0000000000
0000000000
0000000000
0000000000
0000000000
0000000000
0000000000
0000000000
0000000000
0000000000
0000000000
0000000000
0000000000
0000000000
0000000000
0000000000
0000000000
0400000000
0E00380080
7F80F803C0
FFFFFFFFF8
3FC3FF0FF8
3F81FE0FF0
3F00FC07F0
3F00FC07E0
3F00FC07E0
3F00FC07E0
3F00FC07E0
3F01FC07E0
3F01FC07E0
7F01FC07E0
FF81FC07E0
1FC3FE0FF8
0E007803F0
0000000080
0000000000
0000000000
0000000000
0000000000
0000000000
0000000000
0000000000
0000000000
ENDCHAR
STARTCHAR char110
ENCODING 110
SWIDTH 1716 0
DWIDTH 26 0
BBX 23 43 0 -8
BITMAP
000000
000000
000000
000000
000000
000000
000000
000000
000000
000000
000000
000000
000000
000000
000000
000000
000000
000000
1E0060
7F81F0
FFFFFC
7F87FE
3F03FC
3F03F8
3F03F8
3F03F8
3F03F8
3F03F8
7F03F8
7F03F8
7F03F8
FF83FC
3F81FE
1E00F8
000000
000000
000000
000000
000000
000000
000000
000000
000000
ENDCHAR
STARTCHAR char111
ENCODING 111
SWIDTH 1518 0
DWIDTH 23 0
BBX 20 43 0 -8
BITMAP
000000
000000
000000
000000
000000
000000
000000
000000
000000
000000
000000
000000
000000
000000
000000
000000
000000
000000
00F800
03FE00
0FFFF0
FEFFF0
FE7FF0
FE1FF0
FE07F0
FE07F0
FE07F0
7E07F0
FE07F0
FF87F0
FFC7F0
FFE7E0
03FC00
01F000
000000
000000
000000
000000
000000
000000
000000
000000
000000
ENDCHAR
STARTCHAR char112
ENCODING 112
SWIDTH 1782 0
DWIDTH 27 0
BBX 24 43 0 -8
BITMAP
000000
000000
000000
000000
000000
000000
000000
000000
000000
000000
000000
000000
000000
000000
000000
000000
000000
000000
000030
0F00FC
1FFFFF
FFE1FE
3FC0FE
1F80FE
1F80FE
1F80FE
1F80FE
1F80FE
1F80FE
1F80FE
1F83FE
1FE7FE
1F8078
1F8020
1F8000
1F8000
1F8000
3FC000
3F8000
060000
000000
000000
000000
ENDCHAR
STARTCHAR char113
ENCODING 113
SWIDTH 1584 0
DWIDTH 24 0
BBX 21 43 0 -8
BITMAP
000000
000000
000000
000000
000000
000000
000000
000000
000000
000000
000000
000000
000000
000000
000000
000000
000000
000000
003000
00FC00
0FFFC0
7FFFF8
FE1FF0
FE0FF0
7E03F0
7E03F0
7E03F0
7E03E0
7E03E0
7E03E0
FF03E0
FF83E0
1F83E0
0703E0
0003E0
0003E0
0003F0
000FF8
0007F0
0001C0
000000
000000
000000
ENDCHAR
STARTCHAR char114
ENCODING 114
SWIDTH 1452 0
DWIDTH 22 0
BBX 19 43 0 -8
BITMAP
000000
000000
000000
000000
000000
000000
000000
000000
000000
000000
000000
000000
000000
000000
000000
000000
000000
000000
000100
1E0780
FFFFE0
3F8780
1F8380
1F8100
1F8000
1F8000
1F8000
1F8000
1F8000
1F8000
1F8000
3FC000
1F8000
030000
000000
000000
000000
000000
000000
000000
000000
000000
000000
ENDCHAR
STARTCHAR char115
ENCODING 115
SWIDTH 1716 0
DWIDTH 26 0
BBX 23 43 0 -8
BITMAP
000000
000000
000000
000000
000000
000000
000000
000000
000000
000000
000000
000000
000000
000000
000000
000000
000000
000000
001C06
00FFB8
FFFFF8
7F7FE0
7F3FC0
7F0180
7F0100
7F0400
FFFC08
00E3F8
0003F8
0703F8
1FC3F8
7FE3F8
FFFFF8
01FE00
00E000
000000
000000
000000
000000
000000
000000
000000
000000
ENDCHAR
STARTCHAR char116
ENCODING 116
SWIDTH 990 0
DWIDTH 15 0
BBX 13 43 0 -8
BITMAP
0000
0000
0000
0000
0000
0000
0000
0000
0000
0000
0080
0180
0780
1F80
1F80
1F80
1F80
3F80
FFF8
FFF8
3FF8
1F80
1F80
1F80
1F80
1F80
1F80
1F80
1F80
3F80
3F80
3FF0
0FF0
0380
0000
0000
0000
0000
0000
0000
0000
0000
0000
ENDCHAR
STARTCHAR char117
ENCODING 117
SWIDTH 1716 0
DWIDTH 26 0
BBX 23 43 0 -8
BITMAP
000000
000000
000000
000000
000000
000000
000000
000000
000000
000000
000000
000000
000000
000000
000000
000000
000000
000000
180030
3F01F8
FF03FE
7F03FC
7F01FC
7F01FC
7F01FC
7F01FC
7F01FC
7F01FC
7F01F8
7F01F8
7F01FC
7F07FC
FFFFFC
1E0070
000000
000000
000000
000000
000000
000000
000000
000000
000000
ENDCHAR
STARTCHAR char118
ENCODING 118
SWIDTH 1584 0
DWIDTH 24 0
BBX 21 43 0 -8
BITMAP
000000
000000
000000
000000
000000
000000
000000
000000
000000
000000
000000
000000
000000
000000
000000
000000
000000
000000
1C01C0
3C07F0
FF07F8
7F83C0
3F0380
3F0300
1F8300
1F8000
0F8000
0FC000
07E000
07F800
07F800
03F800
03F000
00E000
000000
000000
000000
000000
000000
000000
000000
000000
000000
ENDCHAR
STARTCHAR char119
ENCODING 119
SWIDTH 2508 0
DWIDTH 38 0
BBX 34 43 0 -8
BITMAP
0000000000
0000000000
0000000000
0000000000
0000000000
0000000000
0000000000
0000000000
0000000000
0000000000
0000000000
0000000000
0000000000
0000000000
0000000000
0000000000
0000000000
0000000000
0C00600200
3E03F00F80
FFC7FC1FC0
FFC1FC0F00
3FC1FC0C00
3FC1FC0C00
1FC1FC0800
0FE1FC0000
07E07E0000
07E03E0000
07F03F0000
07FC3F0000
07FC3FE000
0FFE3FF000
01F80F8000
0060030000
0000000000
0000000000
0000000000
0000000000
0000000000
0000000000
0000000000
0000000000
0000000000
ENDCHAR
STARTCHAR char120
ENCODING 120
SWIDTH 1782 0
DWIDTH 27 0
BBX 24 43 0 -8
BITMAP
000000
000000
000000
000000
000000
000000
000000
000000
000000
000000
000000
000000
000000
000000
000000
000000
000000
0600E0
0F81F0
7FE3FC
7FE1E0
1FE1C0
0FF900
03FE00
01FE00
00FE00
00FF00
00FFC0
001FC0
060FF0
1E0FFC
FF0FFF
3F01FC
1C0030
000000
000000
000000
000000
000000
000000
000000
000000
000000
ENDCHAR
STARTCHAR char121
ENCODING 121
SWIDTH 1716 0
DWIDTH 26 0
BBX 23 43 0 -8
BITMAP
000000
000000
000000
000000
000000
000000
000000
000000
000000
000000
000000
000000
000000
000000
000000
000000
000000
000000
0E0070
3F01F8
FFC3FE
FFC1FE
3F81FC
3F81FC
3F80FC
3F80FC
3F80FC
3F80FC
3F80FC
3F81FC
1F81FC
0F81FC
0F81F8
0FFFF0
3FFC00
600000
8007FC
80003E
80403E
C1803E
3E0000
000000
000000
ENDCHAR
STARTCHAR char122
ENCODING 122
SWIDTH 1584 0
DWIDTH 24 0
BBX 21 43 0 -8
BITMAP
000000
000000
000000
000000
000000
000000
000000
000000
000000
000000
000000
000000
000000
000000
000000
000000
000000
000000
180380
3FFFC0
3F1FF8
1C1FE0
183FC0
107F00
00FF00
03FC00
07F800
0FF000
1FE010
3F8030
7F0078
FFC3F8
3F80F8
0E0030
000000
000000
000000
000000
000000
000000
000000
000000
000000
ENDCHAR
ENDFONT
